<svg width="128" height="128" xmlns="http://www.w3.org/2000/svg">

 <g>
  <title>background</title>
  <rect fill="none" id="canvas_background" height="402" width="582" y="-1" x="-1"/>
 </g>
 <g>
  <title>Layer 1</title>
  <path id="svg_2" fill="#7510f7" d="m63.999001,46.284c22.270996,0 45.937996,-4.101002 45.937996,-11.700001c0,-7.6 -23.667999,-11.699999 -45.937996,-11.699999c-22.27,0 -45.938,4.101 -45.938,11.699999c0,7.598999 23.667999,11.700001 45.938,11.700001zm0,-21.4c25.895996,0 43.937996,5.112 43.937996,9.699999c0,4.588001 -18.044998,9.700001 -43.937996,9.700001s-43.938,-5.112 -43.938,-9.700001c0,-4.587999 18.043999,-9.699999 43.938,-9.699999z"/>
  <path id="svg_3" fill="#7510f7" d="m108.939003,44.284c-0.554001,0 -1,0.447998 -1,1l0,8.132c0,4.586998 -18.045006,9.699001 -43.939003,9.699001c-25.894001,0 -43.938,-5.112003 -43.938,-9.699001l0,-8.132c0,-0.552002 -0.447001,-1 -1,-1c-0.554001,0 -1,0.447998 -1,1l0,8.132c0,7.598999 23.668999,11.698997 45.938,11.698997s45.939003,-4.099998 45.939003,-11.698997l0,-8.132c0,-0.552002 -0.449005,-1 -1,-1z"/>
  <path id="svg_4" fill="#7510f7" d="m108.939003,64.283997c-0.554001,0 -1,0.447006 -1,1l0,8.133003c0,4.587997 -18.045006,9.698997 -43.939003,9.698997c-25.894001,0 -43.938,-5.111 -43.938,-9.698997l0,-8.133003c0,-0.552994 -0.447001,-1 -1,-1c-0.554001,0 -1,0.447006 -1,1l0,8.133003c0,7.599998 23.668999,11.698997 45.938,11.698997s45.939003,-4.099998 45.939003,-11.698997l0,-8.133003c0,-0.551994 -0.449005,-1 -1,-1z"/>
  <path id="svg_5" fill="#7510f7" d="m108.939003,84.282997c-0.554001,0 -1,0.447006 -1,1l0,8.133003c0,4.587997 -18.045006,9.698997 -43.939003,9.698997c-25.894001,0 -43.938,-5.111 -43.938,-9.698997l0,-8.133003c0,-0.552994 -0.447001,-1 -1,-1c-0.554001,0 -1,0.447006 -1,1l0,8.133003c0,7.599998 23.668999,11.698997 45.938,11.698997s45.939003,-4.099998 45.939003,-11.698997l0,-8.133003c0,-0.550995 -0.449005,-1 -1,-1z"/>
 </g>
</svg>