<svg width="32" height="32" xmlns="http://www.w3.org/2000/svg">

 <g>
  <title>background</title>
  <rect fill="none" id="canvas_background" height="402" width="582" y="-1" x="-1"/>
 </g>
 <g>
  <title>Layer 1</title>
  <path id="svg_1" fill="#e8491d" d="m1,10l30,0c0.552,0 1,-0.448 1,-1c0,-0.552 -0.448,-1 -1,-1l-30,0c-0.552,0 -1,0.448 -1,1c0,0.552 0.448,1 1,1z"/>
  <path id="svg_2" fill="#e8491d" d="m31.061527,22.015268l-29.99999,0c-0.552,0 -1,0.448 -1,1c0,0.552 0.448,1 1,1l29.99999,0c0.552,0 1,-0.448 1,-1c0,-0.552 -0.448,-1 -1,-1z"/>
  <path id="svg_10" fill="#e8491d" d="m31,14.984731l-20,0c-0.552,0 -1,0.448 -1,1s0.448,1.000001 1,1.000001l20,0c0.552,0 1,-0.448 1,-1.000001s-0.448,-1 -1,-1z"/>
 </g>
</svg>