<svg width="32" height="32" xmlns="http://www.w3.org/2000/svg">

 <g>
  <title>background</title>
  <rect fill="none" id="canvas_background" height="402" width="582" y="-1" x="-1"/>
 </g>
 <g>
  <title>Layer 1</title>
  <path id="svg_1" fill="#e8491d" d="m0.876924,24.030663l30.000001,0c0.552,0 1,-0.447998 1,-1c0,-0.551998 -0.448,-1 -1,-1l-30.000001,0c-0.552,0 -1,0.448002 -1,1c0,0.552002 0.448,1 1,1z"/>
  <path id="svg_2" fill="#e8491d" d="m31,15l-30,0c-0.552,0 -1,0.448 -1,1c0,0.552 0.448,1 1,1l30,0c0.552,0 1,-0.448 1,-1c0,-0.552 -0.448,-1 -1,-1z"/>
  <path id="svg_10" fill="#e8491d" d="m31.000004,8.030877l-20.000006,0c-0.552,0 -1,0.447996 -1,0.999994s0.448,1 1,1l20.000006,0c0.552,0 1,-0.448 1,-1s-0.448,-0.999994 -1,-0.999994z"/>
 </g>
</svg>