<svg width="32" height="32" xmlns="http://www.w3.org/2000/svg">
 <g>
  <title>background</title>
  <rect x="-1" y="-1" width="33.507689" height="33.507689" id="canvas_background" fill="none"/>
 </g>

 <g>
  <title>Layer 1</title>
  <path stroke="#000000" stroke-opacity="0" d="m1,10l30,0c0.552,0 1,-0.448 1,-1c0,-0.552 -0.448,-1 -1,-1l-30,0c-0.552,0 -1,0.448 -1,1c0,0.552 0.448,1 1,1z" fill="#7510f7" id="svg_1"/>
  <path stroke="#000000" stroke-opacity="0" d="m31.061529,22.01527l-29.999989,0c-0.552,0 -1,0.448 -1,1c0,0.552 0.448,1 1,1l29.999989,0c0.552,0 1.000002,-0.448 1.000002,-1c0,-0.552 -0.448002,-1 -1.000002,-1z" fill="#7510f7" id="svg_2"/>
  <path stroke="#000000" stroke-opacity="0" d="m31,14.98473l-20,0c-0.552,0 -1,0.448 -1,1s0.448,1 1,1l20,0c0.552,0 1,-0.448 1,-1s-0.448,-1 -1,-1z" fill="#7510f7" id="svg_10"/>
 </g>
</svg>