<?xml version="1.0" ?><svg height="60px" version="1.1" viewBox="0 0 60 60" width="60px" xmlns="http://www.w3.org/2000/svg" xmlns:sketch="http://www.bohemiancoding.com/sketch/ns" xmlns:xlink="http://www.w3.org/1999/xlink"><title/><desc/><defs/><g fill="none" fill-rule="evenodd" id="black" stroke="none" stroke-width="1"><g id="slice" transform="translate(-500.000000, 0.000000)"/><g fill="#000000" id="pinterest" transform="translate(16.000000, 12.000000)"><path d="M16.7594534,27.0844011 C23.3650607,27.0844011 27.8461538,20.9370493 27.8461538,12.7083106 C27.8461538,6.48790125 22.683296,0.692307692 14.8387325,0.692307692 C5.07639298,0.692307692 0.153846154,7.8375106 0.153846154,13.7957548 C0.153846154,17.4035321 1.49087054,20.6132513 4.36164448,21.8095301 C4.83195901,22.0055526 5.25338674,21.8158437 5.39032866,21.2845985 C5.48397927,20.9163046 5.71044882,19.9873019 5.8088114,19.6009691 C5.94663682,19.0748349 5.89362705,18.8905376 5.51372364,18.4317486 C4.68677112,17.4341982 4.15902933,16.1453197 4.15902933,14.3176799 C4.15902933,9.01725377 8.04199552,4.2721247 14.2747673,4.2721247 C19.7910237,4.2721247 22.8240664,7.71304229 22.8240664,12.3105531 C22.8240664,18.3583905 20.2024384,23.462794 16.3094593,23.462794 C14.1590293,23.462794 12.5513606,21.648082 13.0661444,19.4226848 C13.6825303,16.7655568 14.8805513,13.8967726 14.8805513,11.9786376 C14.8805513,10.2625382 13.9779126,8.82934871 12.1090234,8.82934871 C9.91117917,8.82934871 8.14624809,11.1509534 8.14624809,14.2593542 C8.14624809,16.239122 8.80268583,17.5785093 8.80268583,17.5785093 C8.80268583,17.5785093 6.55359877,27.3053775 6.15867593,29.0082484 C5.80056544,30.5589913 5.74696666,32.2633654 5.79732595,33.7037705 C5.94781482,34.9959561 7.19943456,36.0482244 8.2852515,34.6306686 C9.0485923,33.3850835 9.86936035,31.8120926 10.2940276,30.2354939 C10.5472965,29.3025828 11.7400165,24.4699652 11.7400165,24.4699652 C12.454765,25.860162 14.5412887,27.0844011 16.7594534,27.0844011 Z" id="Pinterest"/></g></g></svg>