<svg width="512" height="512" xmlns="http://www.w3.org/2000/svg">

 <g>
  <title>background</title>
  <rect fill="none" id="canvas_background" height="402" width="582" y="-1" x="-1"/>
 </g>
 <g>
  <title>Layer 1</title>
  <g id="svg_23">
   <path stroke-width="0.8" fill="#7510f7" id="svg_4" d="m238.147842,339.011169c-1.612686,0 -3.182693,-0.507324 -4.394379,-1.427826l-65.113266,-49.480713c-2.645126,-2.00769 -2.935257,-5.435883 -0.665527,-7.755188l194.273285,-198.357971c8.805756,-8.987251 21.212372,-14.408592 34.941498,-15.27108c13.746216,-0.862488 26.937805,2.96434 37.194153,10.755707c20.256714,15.394333 22.509338,41.355957 5.119659,59.113136l-196.286957,200.409042c-1.143417,1.166931 -2.798782,1.891724 -4.582123,2.000397c-0.162094,0.014496 -0.324219,0.014496 -0.486343,0.014496zm-55.983246,-55.648621l55.283554,42.00824l191.909668,-195.944427c12.824738,-13.089554 11.169434,-32.238251 -3.779938,-43.595558c-7.568542,-5.747505 -17.253174,-8.588638 -27.43277,-7.936348c-10.119781,0.630569 -19.275391,4.631348 -25.768799,11.263092l-190.211716,194.205002z"/>
   <path stroke-width="0.8" fill="#7510f7" id="svg_6" d="m149.799911,371.539337c-1.518799,0 -3.029114,-0.449371 -4.240738,-1.311859c-1.911331,-1.36261 -2.756073,-3.529663 -2.175858,-5.595306l23.046936,-81.827728c0.537506,-1.913391 2.22702,-3.449951 4.436981,-4.036987c2.209991,-0.579834 4.624771,-0.152222 6.356888,1.159607l65.29248,49.306824c1.689468,1.268372 2.482986,3.181763 2.133163,5.073486c-0.358353,1.891663 -1.826004,3.493439 -3.8909,4.254456l-88.347946,32.520874c-0.827652,0.304382 -1.723572,0.456635 -2.611008,0.456635zm26.903717,-77.029663l-17.415329,61.830994l66.760132,-24.570038l-49.344803,-37.260956z"/>
   <path stroke-width="0.8" fill="#7510f7" id="svg_8" d="m468.915558,401.088623l-421.977722,0c-3.64344,0 -6.595783,-2.507751 -6.595783,-5.60257l0,-284.374908c0,-3.09481 2.952343,-5.602554 6.595783,-5.602554l295.360596,0c3.643402,0 6.595795,2.507744 6.595795,5.602554c0,3.094818 -2.952393,5.602554 -6.595795,5.602554l-288.7733,0l0,273.169815l415.390518,0c3.643402,0 6.595795,2.507751 6.595795,5.602539s-2.952393,5.60257 -6.595886,5.60257z"/>
   <path stroke-width="0.8" fill="#7510f7" id="svg_10" d="m468.915558,401.088623c-3.643402,0 -6.595795,-2.507751 -6.595795,-5.60257l0,-278.772354l-17.850403,0c-3.643494,0 -6.595886,-2.507736 -6.595886,-5.602554c0,-3.09481 2.952393,-5.602554 6.595886,-5.602554l24.446198,0c3.643494,0 6.595886,2.507744 6.595886,5.602554l0,284.374908c0,3.094818 -2.952393,5.60257 -6.595886,5.60257z"/>
   <path stroke-width="0.8" fill="#7510f7" id="svg_12" d="m468.915558,194.859634l-89.576599,0c-3.643372,0 -6.595764,-2.507751 -6.595764,-5.602554c0,-3.094833 2.952393,-5.602554 6.595764,-5.602554l89.576691,0c3.643402,0 6.595795,2.507721 6.595795,5.602554c0,3.094788 -2.952393,5.602554 -6.595886,5.602554z"/>
   <path stroke-width="0.8" fill="#7510f7" id="svg_14" d="m265.751221,194.859634l-218.813385,0c-3.64344,0 -6.595783,-2.507751 -6.595783,-5.602554c0,-3.094833 2.952343,-5.602554 6.595783,-5.602554l218.813385,0c3.643494,0 6.595795,2.507721 6.595795,5.602554c0,3.094788 -2.952301,5.602554 -6.595795,5.602554z"/>
   <path stroke-width="0.8" fill="#7510f7" id="svg_16" d="m99.533607,174.449799c-15.759926,0 -28.576111,-10.8862 -28.576111,-24.272888s12.816185,-24.272995 28.576111,-24.272995c15.751442,0 28.567558,10.886261 28.567558,24.272995s-12.816116,24.272888 -28.567558,24.272888zm0,-37.340714c-8.481537,0 -15.384521,5.863495 -15.384521,13.067825s6.902985,13.06778 15.384521,13.06778s15.384537,-5.863464 15.384537,-13.06778s-6.903,-13.067825 -15.384537,-13.067825z"/>
   <path stroke-width="0.8" fill="#7510f7" id="svg_18" d="m169.860382,174.449799c-15.759949,0 -28.576126,-10.8862 -28.576126,-24.272888s12.816177,-24.272995 28.576126,-24.272995s28.576096,10.886261 28.576096,24.272995s-12.816132,24.272888 -28.576096,24.272888zm0,-37.340714c-8.481552,0 -15.384491,5.863495 -15.384491,13.067825s6.902939,13.06778 15.384491,13.06778c8.481537,0 15.384537,-5.863464 15.384537,-13.06778s-6.903,-13.067825 -15.384537,-13.067825z"/>
   <path stroke-width="0.8" fill="#7510f7" id="svg_20" d="m240.195663,174.449799c-15.759918,0 -28.576096,-10.8862 -28.576096,-24.272888s12.816177,-24.272995 28.576096,-24.272995s28.567642,10.886261 28.567642,24.272995s-12.816193,24.272888 -28.567642,24.272888zm0,-37.340714c-8.490021,0 -15.384476,5.863495 -15.384476,13.067825s6.902954,13.06778 15.384476,13.06778c8.481537,0 15.384537,-5.863464 15.384537,-13.06778s-6.903,-13.067825 -15.384537,-13.067825z"/>
   <path stroke-width="0.8" fill="#7510f7" id="svg_22" d="m383.076294,191.040024c-1.561432,0 -3.080322,-0.471115 -4.274902,-1.340851l-66.46991,-48.081924c-2.74762,-1.985901 -3.105957,-5.486618 -0.793579,-7.842178l31.699097,-32.383217c1.126312,-1.152397 2.747528,-1.869934 4.513855,-2.000389c1.672394,-0.13047 3.506958,0.347893 4.838013,1.32634l66.324921,48.241486c2.739075,1.993134 3.080383,5.486572 0.776489,7.834854l-31.554016,32.216492c-1.126282,1.145157 -2.747528,1.869934 -4.496765,1.993149c-0.187714,0.028976 -0.375397,0.03624 -0.563202,0.03624zm-57.228973,-54.358566l56.426941,40.819672l23.132233,-23.62059l-56.307495,-40.957436l-23.251678,23.758354z"/>
  </g>
 </g>
</svg>